<svg xmlns="http://www.w3.org/2000/svg" width="24" height="24" viewBox="0 0 24 24"><path fill="none" d="M0,0H24V24H0Z" data-name="Path 3683"/><path fill="#525863" d="M-2026.8,9.6a9.611,9.611,0,0,0-9.6-9.6,9.619,9.619,0,0,0-7.771,3.969V.914a.914.914,0,0,0-.914-.914.914.914,0,0,0-.914.914v4.9a1.5,1.5,0,0,0,1.5,1.5h4.9a.914.914,0,0,0,.914-.914.914.914,0,0,0-.914-.914h-3.392a7.79,7.79,0,0,1,6.592-3.657,7.78,7.78,0,0,1,7.771,7.772,7.78,7.78,0,0,1-7.771,7.771,7.778,7.778,0,0,1-7.344-5.222.913.913,0,0,0-1.163-.564.914.914,0,0,0-.564,1.163A9.608,9.608,0,0,0-2036.4,19.2,9.611,9.611,0,0,0-2026.8,9.6Zm-11.085,3.057,2.121-2.121a.9.9,0,0,0,.168-.233l0,0v0a.9.9,0,0,0,.092-.4V4.5a.9.9,0,0,0-.9-.9.9.9,0,0,0-.9.9V9.527l-1.858,1.857a.9.9,0,0,0,0,1.273.9.9,0,0,0,.636.264A.9.9,0,0,0-2037.885,12.658Z" data-name="Path 3587" transform="translate(2048.399 2.4)"/></svg>